<svg width="1607.54" height="352" viewBox="0 0 1607.54 352" xmlns="http://www.w3.org/2000/svg"><g transform="translate(48 48)"><rect width="256" height="256" rx="56.32" fill="#6D5EF7"/><g fill="#ffffff" transform="translate(128 128) scale(0.06908 -0.06908) translate(-1234.12 -745.00)"><path transform="translate(0.00 0)" d="M691.19921875 -24Q491.9996337890625 -24 352.39984130859375 36.300018310546875Q212.800048828125 96.60003662109375 139.80010986328125 212.39999389648438Q66.8001708984375 328.199951171875 66.8001708984375 492.7998046875H417.99761962890625Q420.3975830078125 423.5992431640625 454.49774169921875 373.8988342285156Q488.597900390625 324.19842529296875 549.9982604980469 297.6982116699219Q611.3986206054688 271.197998046875 695.1991577148438 271.197998046875Q769.7996826171875 271.197998046875 825.1000671386719 290.7981872558594Q880.4004516601562 310.39837646484375 911.4006652832031 345.7987365722656Q942.40087890625 381.1990966796875 942.40087890625 428.39959716796875Q942.40087890625 469.59991455078125 915.8008422851562 500.400146484375Q889.2008056640625 531.2003784179688 833.1006774902344 554.1005554199219Q777.0005493164062 577.000732421875 688.2002563476562 595.0008544921875L536.4000244140625 625.6010131835938Q317.9998779296875 669.6011962890625 206.60003662109375 777.2009887695312Q95.2001953125 884.80078125 95.2001953125 1048.0006103515625Q95.2001953125 1187.4004516601562 169.50003051757812 1292.1003112792969Q243.79986572265625 1396.8001708984375 376.599609375 1455.4000854492188Q509.39935302734375 1514 685.1990356445312 1514Q864.9986572265625 1514 995.0984191894531 1455.5000305175781Q1125.1981811523438 1397.0000610351562 1197.1980590820312 1287.400146484375Q1269.1979370117188 1177.8002319335938 1273.9979248046875 1024.400390625H932.8004150390625Q925.6004028320312 1114.8011474609375 860.3999938964844 1166.7015686035156Q795.1995849609375 1218.6019897460938 690.3988647460938 1218.6019897460938Q624.7984008789062 1218.6019897460938 573.8980407714844 1199.0018005371094Q522.9976806640625 1179.401611328125 494.09747314453125 1145.2012634277344Q465.197265625 1111.0009155273438 465.197265625 1065.8004760742188Q465.197265625 1025.4002075195312 489.59735107421875 996.7999877929688Q513.9974365234375 968.1997680664062 566.6976318359375 946.7995910644531Q619.3978271484375 925.3994140625 702.5982055664062 908.7992553710938L832.3988037109375 882.7990112304688Q956.5985717773438 858.198974609375 1046.5984191894531 820.9989624023438Q1136.5982666015625 783.7989501953125 1194.2981872558594 731.3989868164062Q1251.9981079101562 678.9990234375 1279.5980834960938 610.2991027832031Q1307.1980590820312 541.5991821289062 1307.1980590820312 454.79931640625Q1307.1980590820312 304.19964599609375 1234.09814453125 196.99978637695312Q1160.9982299804688 89.7999267578125 1023.0984802246094 32.89996337890625Q885.19873046875 -24 691.19921875 -24Z"/><path transform="translate(1281.84 0)" d="M93.600830078125 0V1490H462.39794921875V313.59765625H1119.598876953125V0Z"/></g></g><g fill="currentColor" transform="translate(376 176) scale(0.09375 -0.09375) translate(-69.60 -745.80)"><path transform="translate(0.00 0)" d="M678.3984375 -24Q485.999267578125 -24 349.7996826171875 36.60003662109375Q213.60009765625 97.2000732421875 141.6002197265625 212.29998779296875Q69.600341796875 327.39990234375 69.600341796875 489.599609375H378.9952392578125Q380.795166015625 411.198486328125 417.4954833984375 354.79766845703125Q454.19580078125 298.3968505859375 521.4965209960938 268.39642333984375Q588.7972412109375 238.39599609375 681.3983154296875 238.39599609375Q764.599365234375 238.39599609375 826.2001342773438 261.09637451171875Q887.8009033203125 283.7967529296875 922.3013305664062 325.09747314453125Q956.8017578125 366.398193359375 956.8017578125 421.7991943359375Q956.8017578125 468.1998291015625 929.6016845703125 502.80029296875Q902.401611328125 537.4007568359375 844.2013549804688 563.2011108398438Q786.0010986328125 589.00146484375 692.4005126953125 609.001708984375L536.800048828125 642.2020263671875Q315.999755859375 689.202392578125 207.2000732421875 793.4019775390625Q98.400390625 897.6015625 98.400390625 1058.001220703125Q98.400390625 1194.8009033203125 170.00006103515625 1297.2006225585938Q241.5997314453125 1399.600341796875 370.19921875 1456.8001708984375Q498.7987060546875 1514 669.3980712890625 1514Q842.997314453125 1514 969.1968383789062 1456.0000610351562Q1095.3963623046875 1398.0001220703125 1165.3961181640625 1289.80029296875Q1235.3958740234375 1181.6004638671875 1239.995849609375 1030.80078125H939.600830078125Q932.2008056640625 1133.602294921875 860.2999877929688 1192.4031372070312Q788.399169921875 1251.2039794921875 671.7977294921875 1251.2039794921875Q598.5968017578125 1251.2039794921875 541.7960815429688 1228.5036010742188Q484.995361328125 1205.80322265625 452.6949462890625 1165.9025268554688Q420.39453125 1126.0018310546875 420.39453125 1073.6009521484375Q420.39453125 1028.8004150390625 446.1947021484375 996.5999755859375Q471.994873046875 964.3995361328125 527.895263671875 940.0991821289062Q583.795654296875 915.798828125 673.1964111328125 896.5985107421875L812.797607421875 866.5980224609375Q933.1971435546875 841.39794921875 1020.6968383789062 803.9979248046875Q1108.196533203125 766.597900390625 1164.5963745117188 714.7979736328125Q1220.9962158203125 662.998046875 1248.1961669921875 595.5982055664062Q1275.3961181640625 528.1983642578125 1275.3961181640625 443.5986328125Q1275.3961181640625 298.3992919921875 1203.6962890625 193.49957275390625Q1131.9964599609375 88.599853515625 998.1969604492188 32.2999267578125Q864.3974609375 -24 678.3984375 -24Z"/><path transform="translate(1281.00 0)" d="M588.9989013671875 -24Q428.59912109375 -24 308.59954833984375 46.70001220703125Q188.5999755859375 117.4000244140625 122.50030517578125 242.20001220703125Q56.400634765625 367 56.400634765625 527.199951171875Q56.400634765625 688.7999267578125 123.400390625 813.4999389648438Q190.400146484375 938.199951171875 308.29974365234375 1009.0999755859375Q426.1993408203125 1080 579.3988037109375 1080Q696.5985107421875 1080 792.5982055664062 1040.2999877929688Q888.597900390625 1000.5999755859375 958.1976318359375 927.4999389648438Q1027.79736328125 854.39990234375 1065.4971923828125 754.3998413085938Q1103.197021484375 654.3997802734375 1103.197021484375 533.7996826171875V450.8011474609375H163.199951171875V643.5992431640625H955.9991455078125L816.40185546875 599.7989501953125Q816.40185546875 676.6002197265625 788.4014282226562 732.1011962890625Q760.4010009765625 787.6021728515625 709.000244140625 817.6027221679688Q657.5994873046875 847.603271484375 585.99853515625 847.603271484375Q515.3975830078125 847.603271484375 463.8968505859375 817.6027221679688Q412.3961181640625 787.6021728515625 384.39569091796875 732.1011962890625Q356.395263671875 676.6002197265625 356.395263671875 599.7989501953125V464.801513671875Q356.395263671875 386.4002685546875 384.8956298828125 327.5992431640625Q413.39599609375 268.7982177734375 467.69671630859375 236.59759521484375Q521.9974365234375 204.39697265625 598.5985107421875 204.39697265625Q654.3992919921875 204.39697265625 697.8998413085938 220.39727783203125Q741.400390625 236.3975830078125 770.8007202148438 265.49810791015625Q800.2010498046875 294.5986328125 813.201171875 333.3992919921875H1093.5966796875Q1074.1966552734375 228.199462890625 1003.39697265625 147.79962158203125Q932.5972900390625 67.3997802734375 825.497802734375 21.69989013671875Q718.3983154296875 -24 588.9989013671875 -24Z"/><path transform="translate(2373.00 0)" d="M399.6015625 0 9.600830078125 1056H332.795166015625L501.3975830078125 543.99609375Q531.5975341796875 448.796875 559.0974731445312 353.59765625Q586.597412109375 258.3984375 613.3973388671875 163.19921875H539.9986572265625Q566.5986328125 258.3984375 593.298583984375 353.59765625Q619.99853515625 448.796875 649.198486328125 543.99609375L814.8009033203125 1056H1134.395263671875L744.39453125 0Z"/><path transform="translate(3453.00 0)" d="M588.9989013671875 -24Q428.59912109375 -24 308.59954833984375 46.70001220703125Q188.5999755859375 117.4000244140625 122.50030517578125 242.20001220703125Q56.400634765625 367 56.400634765625 527.199951171875Q56.400634765625 688.7999267578125 123.400390625 813.4999389648438Q190.400146484375 938.199951171875 308.29974365234375 1009.0999755859375Q426.1993408203125 1080 579.3988037109375 1080Q696.5985107421875 1080 792.5982055664062 1040.2999877929688Q888.597900390625 1000.5999755859375 958.1976318359375 927.4999389648438Q1027.79736328125 854.39990234375 1065.4971923828125 754.3998413085938Q1103.197021484375 654.3997802734375 1103.197021484375 533.7996826171875V450.8011474609375H163.199951171875V643.5992431640625H955.9991455078125L816.40185546875 599.7989501953125Q816.40185546875 676.6002197265625 788.4014282226562 732.1011962890625Q760.4010009765625 787.6021728515625 709.000244140625 817.6027221679688Q657.5994873046875 847.603271484375 585.99853515625 847.603271484375Q515.3975830078125 847.603271484375 463.8968505859375 817.6027221679688Q412.3961181640625 787.6021728515625 384.39569091796875 732.1011962890625Q356.395263671875 676.6002197265625 356.395263671875 599.7989501953125V464.801513671875Q356.395263671875 386.4002685546875 384.8956298828125 327.5992431640625Q413.39599609375 268.7982177734375 467.69671630859375 236.59759521484375Q521.9974365234375 204.39697265625 598.5985107421875 204.39697265625Q654.3992919921875 204.39697265625 697.8998413085938 220.39727783203125Q741.400390625 236.3975830078125 770.8007202148438 265.49810791015625Q800.2010498046875 294.5986328125 813.201171875 333.3992919921875H1093.5966796875Q1074.1966552734375 228.199462890625 1003.39697265625 147.79962158203125Q932.5972900390625 67.3997802734375 825.497802734375 21.69989013671875Q718.3983154296875 -24 588.9989013671875 -24Z"/><path transform="translate(4545.00 0)" d="M102.0009765625 0V1056H399.595458984375V874.400634765625H402.3955078125Q431.3955078125 971.4000244140625 493.195556640625 1016.9002075195312Q554.99560546875 1062.400390625 659.995361328125 1062.400390625Q686.59521484375 1062.400390625 708.4951171875 1061.600341796875Q730.39501953125 1060.80029296875 748.794677734375 1060.000244140625V800.00390625Q732.1949462890625 801.2039794921875 694.6953125 803.0040893554688Q657.1956787109375 804.80419921875 619.595703125 804.80419921875Q559.19580078125 804.80419921875 511.595703125 777.2042236328125Q463.99560546875 749.604248046875 436.9954833984375 695.9041137695312Q409.995361328125 642.2039794921875 409.995361328125 563.603515625V0Z"/><path transform="translate(5256.00 0)" d="M102.0009765625 0V1056H409.995361328125V0ZM255.398193359375 1190.6029052734375Q184.59912109375 1190.6029052734375 135.29974365234375 1238.1023559570312Q86.0003662109375 1285.601806640625 86.0003662109375 1354.0009765625Q86.0003662109375 1422.400146484375 135.29974365234375 1469.8995971679688Q184.59912109375 1517.3990478515625 255.398193359375 1517.3990478515625Q326.197265625 1517.3990478515625 375.49664306640625 1469.8995971679688Q424.7960205078125 1422.400146484375 424.7960205078125 1354.0009765625Q424.7960205078125 1285.601806640625 375.49664306640625 1238.1023559570312Q326.197265625 1190.6029052734375 255.398193359375 1190.6029052734375Z"/><path transform="translate(5704.00 0)" d="M409.995361328125 583.201416015625V0H102.0009765625V1056H405.3953857421875V779.0008544921875H354.9954833984375Q405.195556640625 919.0009765625 497.99554443359375 998.700439453125Q590.7955322265625 1078.39990234375 736.794677734375 1078.39990234375Q850.3944091796875 1078.39990234375 932.99462890625 1029.5Q1015.5948486328125 980.60009765625 1060.5951538085938 887.60009765625Q1105.595458984375 794.60009765625 1105.595458984375 661.999755859375V0H797.60107421875V603.20166015625Q797.60107421875 706.0030517578125 748.6004028320312 759.6036987304688Q699.5997314453125 813.204345703125 609.3985595703125 813.204345703125Q550.3978271484375 813.204345703125 505.3970947265625 788.8040771484375Q460.3963623046875 764.40380859375 435.19586181640625 713.503173828125Q409.995361328125 662.6025390625 409.995361328125 583.201416015625Z"/><path transform="translate(6848.00 0)" d="M597.99853515625 -24Q436.9991455078125 -24 314.79962158203125 44.7000732421875Q192.60009765625 113.400146484375 124.5003662109375 237.400146484375Q56.400634765625 361.400146484375 56.400634765625 527.199951171875Q56.400634765625 693.3997802734375 124.5003662109375 817.4998168945312Q192.60009765625 941.599853515625 314.79962158203125 1010.7999267578125Q436.9991455078125 1080 597.99853515625 1080Q759.9979248046875 1080 881.6974487304688 1010.7999267578125Q1003.39697265625 941.599853515625 1071.4967041015625 817.4998168945312Q1139.596435546875 693.3997802734375 1139.596435546875 527.199951171875Q1139.596435546875 361.400146484375 1071.4967041015625 237.400146484375Q1003.39697265625 113.400146484375 881.6974487304688 44.7000732421875Q759.9979248046875 -24 597.99853515625 -24ZM597.99853515625 224.796142578125Q666.7998046875 224.796142578125 718.6005859375 260.5966796875Q770.4013671875 296.397216796875 799.4017333984375 364.298095703125Q828.402099609375 432.198974609375 828.402099609375 527.199951171875Q828.402099609375 623.6009521484375 799.4017333984375 691.2018432617188Q770.4013671875 758.802734375 718.6005859375 795.0032958984375Q666.7998046875 831.203857421875 597.99853515625 831.203857421875Q530.197265625 831.203857421875 477.896484375 795.2033081054688Q425.595703125 759.2027587890625 396.5953369140625 691.40185546875Q367.594970703125 623.6009521484375 367.594970703125 527.199951171875Q367.594970703125 431.7989501953125 396.5953369140625 364.09808349609375Q425.595703125 296.397216796875 477.69647216796875 260.5966796875Q529.7972412109375 224.796142578125 597.99853515625 224.796142578125Z"/><path transform="translate(8346.00 0)" d="M107.20166015625 0V1490H428.7958984375V275.1953125H1101.19775390625V0Z"/><path transform="translate(9427.00 0)" d="M425.200927734375 -17.7999267578125Q319.6009521484375 -17.7999267578125 237.8009033203125 17.0001220703125Q156.0008544921875 51.8001708984375 109.00079345703125 121.80023193359375Q62.000732421875 191.80029296875 62.000732421875 296.80029296875Q62.000732421875 386.600341796875 94.80084228515625 446.30023193359375Q127.6009521484375 506.0001220703125 184.7010498046875 542.699951171875Q241.8011474609375 579.3997802734375 316.40118408203125 598.4996948242188Q391.001220703125 617.599609375 473.60107421875 625.19970703125Q569.80126953125 634.39990234375 626.9013061523438 643.4998168945312Q684.0013427734375 652.5997314453125 708.8013305664062 669.7996826171875Q733.601318359375 686.9996337890625 733.601318359375 720.39990234375V726.800048828125Q733.601318359375 763.8009033203125 713.6010131835938 791.8015747070312Q693.6007080078125 819.80224609375 656.7000732421875 835.70263671875Q619.7994384765625 851.60302734375 567.99853515625 851.60302734375Q515.397705078125 851.60302734375 475.697021484375 835.2026977539062Q435.996337890625 818.8023681640625 412.99591064453125 789.1018676757812Q389.9954833984375 759.4013671875 385.9954833984375 719.600830078125H97.2001953125Q104.60009765625 830.4002685546875 162.5999755859375 910.7000732421875Q220.599853515625 990.9998779296875 325.49945068359375 1034.6998901367188Q430.3990478515625 1078.39990234375 577.59814453125 1078.39990234375Q687.597412109375 1078.39990234375 773.4969482421875 1053.6998901367188Q859.396484375 1028.9998779296875 918.4962158203125 981.7999267578125Q977.595947265625 934.5999755859375 1007.995849609375 867.3001098632812Q1038.395751953125 800.000244140625 1038.395751953125 714.800537109375V0H737.201171875V148.800048828125H733.201171875Q704.6015625 95.8006591796875 662.8017578125 58.5006103515625Q621.001953125 21.2005615234375 562.7017822265625 1.7003173828125Q504.401611328125 -17.7999267578125 425.200927734375 -17.7999267578125ZM512.79833984375 192.397705078125Q580.1998291015625 192.397705078125 630.5004272460938 217.2982177734375Q680.801025390625 242.19873046875 708.401123046875 285.3994140625Q736.001220703125 328.60009765625 736.001220703125 384.400634765625V487.601806640625Q723.0013427734375 481.001708984375 702.5010986328125 474.8016357421875Q682.0008544921875 468.6015625 655.2003784179688 462.9014892578125Q628.39990234375 457.201416015625 596.7993774414062 451.70135498046875Q565.1988525390625 446.2012939453125 530.3984375 440.80126953125Q481.39794921875 433.4012451171875 441.8973388671875 417.20111083984375Q402.396728515625 401.0009765625 379.1962890625 374.20062255859375Q355.995849609375 347.4002685546875 355.995849609375 307.199462890625Q355.995849609375 271.39892578125 375.59613037109375 245.49853515625Q395.1964111328125 219.59814453125 430.39697265625 205.9979248046875Q465.5975341796875 192.397705078125 512.79833984375 192.397705078125Z"/><path transform="translate(10503.00 0)" d="M717.996337890625 -22.39990234375Q648.79638671875 -22.39990234375 589.1962890625 -1.99993896484375Q529.59619140625 18.4000244140625 483.29595947265625 59.5999755859375Q436.9957275390625 100.7999267578125 407.3953857421875 162.39990234375H405.995361328125V0H102.0009765625V1490H409.995361328125V910.799560546875H411.3953857421875Q445.3953857421875 967.9996337890625 490.99560546875 1004.8997192382812Q536.5958251953125 1041.7998046875 594.4960327148438 1060.099853515625Q652.396240234375 1078.39990234375 720.396240234375 1078.39990234375Q855.3963623046875 1078.39990234375 957.4963989257812 1008.7999267578125Q1059.596435546875 939.199951171875 1117.1964111328125 815.3999633789062Q1174.79638671875 691.5999755859375 1174.79638671875 529.199951171875Q1174.79638671875 363.60009765625 1118.0963745117188 239.5001220703125Q1061.3963623046875 115.400146484375 958.996337890625 46.5001220703125Q856.5963134765625 -22.39990234375 717.996337890625 -22.39990234375ZM636.1986083984375 227.1961669921875Q705.99951171875 227.1961669921875 756.80029296875 262.89654541015625Q807.60107421875 298.596923828125 835.6015625 366.19775390625Q863.60205078125 433.798583984375 863.60205078125 529.199951171875Q863.60205078125 625.0013427734375 835.6015625 692.002197265625Q807.60107421875 759.0030517578125 756.80029296875 794.7034301757812Q705.99951171875 830.40380859375 636.1986083984375 830.40380859375Q564.5975341796875 830.40380859375 510.29681396484375 793.1033325195312Q455.99609375 755.8028564453125 425.9957275390625 688.4019775390625Q395.995361328125 621.0010986328125 395.995361328125 529.199951171875Q395.995361328125 437.798828125 425.9957275390625 369.7979736328125Q455.99609375 301.797119140625 510.29681396484375 264.49664306640625Q564.5975341796875 227.1961669921875 636.1986083984375 227.1961669921875Z"/><path transform="translate(11670.00 0)" d="M547.997802734375 -25.7999267578125Q408.598876953125 -25.7999267578125 300.09954833984375 16.89984130859375Q191.6002197265625 59.599609375 126.50054931640625 140.19940185546875Q61.40087890625 220.7991943359375 52.0009765625 333.3992919921875H355.595458984375Q363.3955078125 267.59814453125 411.69610595703125 229.89764404296875Q459.9967041015625 192.1971435546875 542.7978515625 192.1971435546875Q622.1990966796875 192.1971435546875 667.099853515625 221.69781494140625Q712.0006103515625 251.198486328125 712.0006103515625 297.7994384765625Q712.0006103515625 337.4002685546875 677.000244140625 362.000732421875Q641.9998779296875 386.6011962890625 577.599609375 399.0013427734375L390.80029296875 434.2015380859375Q236.6005859375 463.8017578125 156.30078125 541.8016357421875Q76.0009765625 619.801513671875 76.0009765625 742.6011962890625Q76.0009765625 844.000732421875 131.1007080078125 919.50048828125Q186.200439453125 995.000244140625 288.2998046875 1036.6001586914062Q390.399169921875 1078.2000732421875 530.3980712890625 1078.2000732421875Q670.3968505859375 1078.2000732421875 774.09619140625 1034.3001708984375Q877.7955322265625 990.4002685546875 936.1952514648438 910.200439453125Q994.594970703125 830.0006103515625 997.594970703125 719.0008544921875H712.7998046875Q711.7998046875 780.2017822265625 663.6992797851562 820.8023681640625Q615.5987548828125 861.4029541015625 539.9976806640625 861.4029541015625Q466.396728515625 861.4029541015625 424.5960693359375 830.9022827148438Q382.79541015625 800.401611328125 382.79541015625 755.8006591796875Q382.79541015625 716.7998046875 415.69586181640625 691.6993408203125Q448.5963134765625 666.598876953125 507.197021484375 654.5986328125L710.795654296875 615.798583984375Q871.7952880859375 584.598388671875 947.8950805664062 514.29833984375Q1023.994873046875 443.998291015625 1023.994873046875 326.9984130859375Q1023.994873046875 220.5987548828125 963.795166015625 141.29913330078125Q903.595458984375 61.99951171875 796.1961059570312 18.09979248046875Q688.7967529296875 -25.7999267578125 547.997802734375 -25.7999267578125Z"/></g></svg>